<svg width="206" height="30" viewBox="0 0 206 30" fill="none" xmlns="http://www.w3.org/2000/svg">
<g clip-path="url(#clip0_37_2138)">
<path d="M106.163 7.4652C106.163 2.51694 108.05 0.498047 112.375 0.498047C113.555 0.498047 114.616 0.616806 115.953 0.893907V5.36715C115.879 5.35934 115.81 5.35192 115.745 5.34488C115.143 5.28055 114.842 5.24839 114.38 5.24839C113.28 5.24839 112.454 5.44632 112.454 7.62353V8.89033H115.953V13.6407H112.454V29.1584H106.163V13.6407H103.45V8.89033H106.163V7.4652Z" fill="#1E1E1E"/>
<path fill-rule="evenodd" clip-rule="evenodd" d="M115.597 19.0639C115.597 25.4769 119.646 29.8314 126.291 29.8314C133.055 29.8314 137.105 25.3581 137.105 18.9452C137.105 12.5718 133.055 8.21733 126.41 8.21733C119.646 8.21733 115.597 12.6906 115.597 19.0639ZM126.37 25.0811C123.539 25.0811 121.966 22.9434 121.966 19.0243C121.966 15.1053 123.539 12.9677 126.37 12.9677C129.162 12.9677 130.735 15.1053 130.735 19.0243C130.735 22.9434 129.162 25.0811 126.37 25.0811Z" fill="#1E1E1E"/>
<path d="M183.685 13.4031C185.926 13.4031 186.556 14.4324 186.556 17.4805V29.1585H192.847V17.4409C192.847 14.6303 194.105 13.4031 196.111 13.4031C198.352 13.4031 198.981 14.4324 198.981 17.4805V29.1585H205.351V15.4616C205.351 10.8301 202.952 8.25694 198.902 8.25694C195.639 8.25694 193.869 9.8008 192.139 11.8197H192.06C191.274 9.7216 189.426 8.25694 186.791 8.25694C183.764 8.25694 181.562 9.95914 180.5 11.8197H180.421V8.89034H174.13V29.1585H180.421V17.4409C180.421 14.6303 181.719 13.4031 183.685 13.4031Z" fill="#1E1E1E"/>
<path d="M152.345 22.5871C152.345 27.2187 154.979 29.7918 158.872 29.7918C162.45 29.7918 164.416 28.0896 165.478 26.2291H165.556V29.1584H171.848V8.89034H165.556V20.6078C165.556 23.4184 164.18 24.6456 161.782 24.6456C159.698 24.6456 158.636 23.6163 158.636 20.5682V8.89034H152.345V22.5871Z" fill="#1E1E1E"/>
<path d="M144.805 19.7369V29.1584H138.513V8.89027H144.805V12.2155H144.883C145.866 10.0779 147.596 8.73193 149.798 8.73193C150.349 8.73193 150.821 8.73193 151.528 8.89027V14.4323C151.017 14.3532 150.663 14.3136 150.231 14.3136C147.4 14.3136 144.805 16.095 144.805 19.7369Z" fill="#1E1E1E"/>
<path d="M87.0929 22.5871C87.0929 27.5354 88.9801 29.5543 93.3839 29.5543C94.6425 29.5543 95.7828 29.4355 97.1198 29.1188V24.6456C96.3722 24.7643 96.0187 24.8039 95.4286 24.8039C94.2099 24.8039 93.3839 24.606 93.3839 22.4288V13.6407H96.8839V8.89033H93.3839V3.22948H87.0929V8.89033H84.3013V13.6407H87.0929V22.5871Z" fill="#1E1E1E"/>
<path d="M75.4649 29.7918C68.4263 29.7918 65.6739 26.3874 65.5166 22.4288H71.4146C71.6113 24.4477 72.9484 25.4373 75.3466 25.4373C77.1946 25.4373 78.0206 24.8435 78.0206 23.6955C78.0206 22.0893 76.4603 21.7459 74.0953 21.2254C73.779 21.1558 73.4487 21.0831 73.1052 21.0037C69.5666 20.1724 65.9099 18.7473 65.9099 14.6303C65.9099 10.8301 69.0556 8.25694 74.718 8.25694C81.1664 8.25694 83.6829 11.5426 83.8796 15.1053H77.9814C77.7847 13.4823 76.9195 12.6114 74.8356 12.6114C73.1052 12.6114 72.3583 13.2448 72.3583 14.2345C72.3583 15.4153 73.2667 15.6211 75.534 16.1349C75.851 16.2068 76.1945 16.2847 76.566 16.3721C80.5371 17.3222 84.4691 18.5097 84.4691 23.2205C84.4691 27.4562 81.284 29.7918 75.4649 29.7918Z" fill="#1E1E1E"/>
<path fill-rule="evenodd" clip-rule="evenodd" d="M43.6226 19.0639C43.6226 25.4769 47.6726 29.8314 54.3177 29.8314C61.0809 29.8314 65.1309 25.3581 65.1309 18.9452C65.1309 12.5718 61.0809 8.21733 54.4357 8.21733C47.6726 8.21733 43.6226 12.6906 43.6226 19.0639ZM54.3964 25.0811C51.5653 25.0811 49.9925 22.9434 49.9925 19.0243C49.9925 15.1053 51.5653 12.9677 54.3964 12.9677C57.1881 12.9677 58.761 15.1053 58.761 19.0243C58.761 22.9434 57.1881 25.0811 54.3964 25.0811Z" fill="#1E1E1E"/>
<path d="M32.266 29.8314C25.6208 29.8314 21.5708 25.4769 21.5708 19.0639C21.5708 12.6906 25.6208 8.21733 32.3839 8.21733C39.0291 8.21733 43.0791 12.5718 43.0791 18.9452C43.0791 25.3581 39.0291 29.8314 32.266 29.8314Z" fill="#1E1E1E"/>
<path fill-rule="evenodd" clip-rule="evenodd" d="M6.36992 27.1395C7.15631 28.2083 9.27964 29.7918 12.1894 29.7918C17.5369 29.7918 20.9578 25.6748 20.9578 19.0243C20.9578 12.3739 17.5369 8.25693 12.1894 8.25693C9.27964 8.25693 7.15631 9.84033 6.36992 10.9092H6.29128V0.854305H0V29.1584H6.29128V27.1395H6.36992ZM10.4593 25.0415C7.90342 25.0415 6.40925 22.983 6.40925 19.0243C6.40925 15.0657 7.90342 13.0073 10.4593 13.0073C13.0151 13.0073 14.5092 15.0657 14.5092 19.0243C14.5092 22.983 13.0151 25.0415 10.4593 25.0415Z" fill="#1E1E1E"/>
<path d="M32.5474 12.8861V12.1527L32.125 12.7513L27.1734 19.7673L26.9136 20.1355H27.3632H30.6151V24.7025V25.4359L31.0375 24.8374L35.9891 17.8213L36.249 17.4532H35.7993H32.5474V12.8861Z" fill="white" stroke="white" stroke-width="0.7"/>
</g>
<defs>
<clipPath id="clip0_37_2138">
<rect width="206" height="30" fill="white"/>
</clipPath>
</defs>
</svg>
