<svg width="24" height="24" viewBox="0 0 24 24" fill="none" xmlns="http://www.w3.org/2000/svg">
<g clip-path="url(#clip0_1022_9064)">
<path fill-rule="evenodd" clip-rule="evenodd" d="M0 4.8C0 2.14903 2.14903 0 4.8 0H19.2C21.8509 0 24 2.14903 24 4.8V19.2C24 21.8509 21.8509 24 19.2 24H4.8C2.14903 24 0 21.8509 0 19.2V4.8ZM4.8 2.4C3.47452 2.4 2.4 3.47452 2.4 4.8V19.2C2.4 20.5255 3.47452 21.6 4.8 21.6H12V13.2H10.8C10.1372 13.2 9.6 12.6628 9.6 12C9.6 11.3372 10.1372 10.8 10.8 10.8H12V9C12 6.6804 13.8804 4.8 16.2 4.8H16.92C17.5828 4.8 18.12 5.33726 18.12 6C18.12 6.66274 17.5828 7.2 16.92 7.2H16.2C15.2059 7.2 14.4 8.00588 14.4 9V10.8H16.92C17.5828 10.8 18.12 11.3372 18.12 12C18.12 12.6628 17.5828 13.2 16.92 13.2H14.4V21.6H19.2C20.5255 21.6 21.6 20.5255 21.6 19.2V4.8C21.6 3.47452 20.5255 2.4 19.2 2.4H4.8Z" fill="#F5F5F5"/>
</g>
<defs>
<clipPath id="clip0_1022_9064">
<rect width="24" height="24" fill="white"/>
</clipPath>
</defs>
</svg>
