<svg width="280" height="166" viewBox="0 0 280 166" fill="none" xmlns="http://www.w3.org/2000/svg">
<g opacity="0.3" clip-path="url(#clip0_807_9509)">
<mask id="mask0_807_9509" style="mask-type:luminance" maskUnits="userSpaceOnUse" x="0" y="0" width="280" height="166">
<path d="M280 0H0V166H280V0Z" fill="white"/>
</mask>
<g mask="url(#mask0_807_9509)">
<path opacity="0.5" d="M0 3.68889C0 1.65157 1.64948 0 3.68421 0H12.8947C14.9295 0 16.5789 1.65157 16.5789 3.68889V166H0V3.68889Z" fill="#F1726F"/>
<path opacity="0.6" d="M23.9473 12.9111C23.9473 10.8737 25.5967 9.22217 27.6315 9.22217H36.842C38.8768 9.22217 40.5262 10.8737 40.5262 12.9111V166H23.9473V12.9111Z" fill="#F1726F"/>
<path opacity="0.7" d="M47.8945 25.8222C47.8945 23.7848 49.544 22.1333 51.5787 22.1333H60.7893C62.8241 22.1333 64.4735 23.7848 64.4735 25.8222V166H47.8945V25.8222Z" fill="#F1726F"/>
<path opacity="0.8" d="M71.8418 38.7333C71.8418 36.6959 73.4912 35.0444 75.526 35.0444H84.7365C86.7713 35.0444 88.4207 36.6959 88.4207 38.7333V166H71.8418V38.7333Z" fill="#F1726F"/>
<path opacity="0.9" d="M95.7891 62.7111C95.7891 60.6737 97.4385 59.0222 99.4733 59.0222H108.684C110.719 59.0222 112.368 60.6737 112.368 62.7111V166H95.7891V62.7111Z" fill="#F1726F"/>
<path d="M119.737 71.9333C119.737 69.8959 121.387 68.2444 123.422 68.2444H132.632C134.667 68.2444 136.316 69.8959 136.316 71.9333V166H119.737V71.9333Z" fill="#F1726F"/>
<path d="M143.685 79.3112C143.685 77.2738 145.334 75.6223 147.369 75.6223H156.579C158.614 75.6223 160.264 77.2738 160.264 79.3112V166H143.685V79.3112Z" fill="#F1726F"/>
<path d="M167.632 108.822C167.632 106.785 169.281 105.133 171.316 105.133H180.527C182.561 105.133 184.211 106.785 184.211 108.822V166H167.632V108.822Z" fill="#F1726F"/>
<path d="M191.579 108.822C191.579 106.785 193.228 105.133 195.263 105.133H204.474C206.509 105.133 208.158 106.785 208.158 108.822V166H191.579V108.822Z" fill="#F1726F"/>
<path d="M215.526 130.955C215.526 128.918 217.175 127.267 219.211 127.267H228.421C230.457 127.267 232.105 128.918 232.105 130.955V166H215.526V130.955Z" fill="#F1726F"/>
<path d="M239.474 130.955C239.474 128.918 241.122 127.267 243.158 127.267H252.368C254.404 127.267 256.053 128.918 256.053 130.955V166H239.474V130.955Z" fill="#F1726F"/>
<path d="M263.421 138.333C263.421 136.296 265.07 134.645 267.105 134.645H276.316C278.351 134.645 280 136.296 280 138.333V166H263.421V138.333Z" fill="#F1726F"/>
</g>
</g>
<defs>
<clipPath id="clip0_807_9509">
<rect width="280" height="166" fill="white"/>
</clipPath>
</defs>
</svg>
