<svg width="280" height="217" viewBox="0 0 280 217" fill="none" xmlns="http://www.w3.org/2000/svg">
<g opacity="0.3" clip-path="url(#clip0_807_9550)">
<mask id="mask0_807_9550" style="mask-type:luminance" maskUnits="userSpaceOnUse" x="0" y="0" width="280" height="217">
<path d="M280 0H0V217H280V0Z" fill="white"/>
</mask>
<g mask="url(#mask0_807_9550)">
<path opacity="0.5" d="M0 180.833C0 178.17 1.64948 176.011 3.68421 176.011H12.8947C14.9295 176.011 16.5789 178.17 16.5789 180.833V217H0V180.833Z" fill="#1EC69F"/>
<path opacity="0.6" d="M23.9473 171.189C23.9473 168.526 25.5967 166.367 27.6315 166.367H36.842C38.8768 166.367 40.5262 168.526 40.5262 171.189V217H23.9473V171.189Z" fill="#1EC69F"/>
<path opacity="0.7" d="M47.8945 154.311C47.8945 151.648 49.544 149.489 51.5787 149.489H60.7893C62.8241 149.489 64.4735 151.648 64.4735 154.311V217H47.8945V154.311Z" fill="#1EC69F"/>
<path opacity="0.8" d="M71.8418 122.967C71.8418 120.303 73.4912 118.145 75.526 118.145H84.7365C86.7713 118.145 88.4207 120.303 88.4207 122.967V217H71.8418V122.967Z" fill="#1EC69F"/>
<path opacity="0.9" d="M95.7891 115.733C95.7891 113.07 97.4385 110.911 99.4733 110.911H108.684C110.719 110.911 112.368 113.07 112.368 115.733V217H95.7891V115.733Z" fill="#1EC69F"/>
<path d="M119.737 106.089C119.737 103.426 121.387 101.267 123.422 101.267H132.632C134.667 101.267 136.316 103.426 136.316 106.089V217H119.737V106.089Z" fill="#1EC69F"/>
<path d="M143.685 81.9777C143.685 79.3144 145.334 77.1555 147.369 77.1555H156.579C158.614 77.1555 160.264 79.3144 160.264 81.9777V217H143.685V81.9777Z" fill="#1EC69F"/>
<path d="M167.632 65.1001C167.632 62.4367 169.281 60.2778 171.316 60.2778H180.527C182.561 60.2778 184.211 62.4367 184.211 65.1001V217H167.632V65.1001Z" fill="#1EC69F"/>
<path d="M191.579 50.6333C191.579 47.9699 193.228 45.811 195.263 45.811H204.474C206.509 45.811 208.158 47.9699 208.158 50.6333V217H191.579V50.6333Z" fill="#1EC69F"/>
<path d="M215.526 16.8779C215.526 14.2146 217.175 12.0557 219.211 12.0557H228.421C230.457 12.0557 232.105 14.2146 232.105 16.8779V217H215.526V16.8779Z" fill="#1EC69F"/>
<path d="M239.474 16.8779C239.474 14.2146 241.122 12.0557 243.158 12.0557H252.368C254.404 12.0557 256.053 14.2146 256.053 16.8779V217H239.474V16.8779Z" fill="#1EC69F"/>
<path d="M263.421 4.82222C263.421 2.15898 265.07 0 267.105 0H276.316C278.351 0 280 2.15898 280 4.82222V217H263.421V4.82222Z" fill="#1EC69F"/>
</g>
</g>
<defs>
<clipPath id="clip0_807_9550">
<rect width="280" height="217" fill="white"/>
</clipPath>
</defs>
</svg>
