<svg width="31" height="29" viewBox="0 0 31 29" fill="none" xmlns="http://www.w3.org/2000/svg">
<path d="M27.6664 1.66663L24.9997 4.33329M24.9997 4.33329L28.9997 8.33329L24.333 13L20.333 8.99996M24.9997 4.33329L20.333 8.99996M14.853 14.48C15.5415 15.1592 16.0888 15.968 16.4634 16.8597C16.838 17.7513 17.0325 18.7083 17.0358 19.6755C17.039 20.6426 16.8509 21.6009 16.4823 22.495C16.1136 23.3892 15.5718 24.2016 14.8879 24.8855C14.204 25.5694 13.3916 26.1112 12.4975 26.4798C11.6033 26.8485 10.645 27.0366 9.67789 27.0333C8.71074 27.0301 7.75377 26.8356 6.8621 26.461C5.97043 26.0864 5.16167 25.5391 4.48238 24.8506C3.14656 23.4675 2.4074 21.6151 2.42411 19.6924C2.44081 17.7696 3.21205 15.9303 4.57171 14.5706C5.93137 13.211 7.77066 12.4397 9.69344 12.423C11.6162 12.4063 13.4686 13.1455 14.8517 14.4813L14.853 14.48ZM14.853 14.48L20.333 8.99996" stroke="#EC221F" stroke-width="3" stroke-linecap="round" stroke-linejoin="round"/>
</svg>
