<svg width="25" height="24" viewBox="0 0 25 24" fill="none" xmlns="http://www.w3.org/2000/svg">
<g clip-path="url(#clip0_185_6304)">
<path d="M19.9805 0H5.98047C3.21947 0 0.980469 2.239 0.980469 5V19C0.980469 21.761 3.21947 24 5.98047 24H19.9805C22.7425 24 24.9805 21.761 24.9805 19V5C24.9805 2.239 22.7425 0 19.9805 0ZM8.98047 19H5.98047V8H8.98047V19ZM7.48047 6.732C6.51447 6.732 5.73047 5.942 5.73047 4.968C5.73047 3.994 6.51447 3.204 7.48047 3.204C8.44647 3.204 9.23047 3.994 9.23047 4.968C9.23047 5.942 8.44747 6.732 7.48047 6.732ZM20.9805 19H17.9805V13.396C17.9805 10.028 13.9805 10.283 13.9805 13.396V19H10.9805V8H13.9805V9.765C15.3765 7.179 20.9805 6.988 20.9805 12.241V19Z" fill="#F3F3F3"/>
</g>
<defs>
<clipPath id="clip0_185_6304">
<rect width="24" height="24" fill="white" transform="translate(0.980469)"/>
</clipPath>
</defs>
</svg>
