<svg width="28" height="30" viewBox="0 0 28 30" fill="none" xmlns="http://www.w3.org/2000/svg">
<path d="M7.66634 13.6666V8.33329C7.66634 6.56518 8.36872 4.86949 9.61896 3.61925C10.8692 2.369 12.5649 1.66663 14.333 1.66663C16.1011 1.66663 17.7968 2.369 19.0471 3.61925C20.2973 4.86949 20.9997 6.56518 20.9997 8.33329V13.6666M4.99967 13.6666H23.6663C25.1391 13.6666 26.333 14.8605 26.333 16.3333V25.6666C26.333 27.1394 25.1391 28.3333 23.6663 28.3333H4.99967C3.52692 28.3333 2.33301 27.1394 2.33301 25.6666V16.3333C2.33301 14.8605 3.52692 13.6666 4.99967 13.6666Z" stroke="#EC221F" stroke-width="3" stroke-linecap="round" stroke-linejoin="round"/>
</svg>
