<svg width="56" height="48" viewBox="0 0 56 48" fill="none" xmlns="http://www.w3.org/2000/svg">
<g clip-path="url(#clip0_185_6266)">
<path fill-rule="evenodd" clip-rule="evenodd" d="M35.5955 28.5063C39.5864 30.7746 44.753 29.4438 47.0733 25.5122L54.8695 12.326C57.1898 8.4246 55.8284 3.37393 51.8067 1.10566C47.8158 -1.1626 42.6492 0.168112 40.3289 4.09977L32.5327 17.2859C30.1196 21.2176 31.4809 26.2683 35.5955 28.5063Z" fill="#1E1E1E"/>
<path fill-rule="evenodd" clip-rule="evenodd" d="M31.264 46.8944C27.273 49.1626 22.1065 47.8319 19.7862 43.9002L1.13102 12.3865C-1.18927 8.48506 0.171971 3.43439 4.19382 1.16613C5.46225 0.440284 6.94724 0.0471191 8.40129 0.0471191H25.1384C26.4996 0.0773627 27.8918 0.440284 29.1602 1.16613C33.1511 3.43439 34.5433 8.48506 32.223 12.3865C30.6761 15.0177 27.8299 16.4694 24.9218 16.4694C24.2412 16.4694 23.5296 16.3786 22.849 16.2274L34.2958 35.6438C36.647 39.5754 35.2549 44.6261 31.264 46.8944Z" fill="#1E1E1E"/>
</g>
<defs>
<clipPath id="clip0_185_6266">
<rect width="56" height="48" fill="white"/>
</clipPath>
</defs>
</svg>
