<svg width="56" height="48" viewBox="0 0 56 48" fill="none" xmlns="http://www.w3.org/2000/svg">
<g clip-path="url(#clip0_185_6294)">
<path fill-rule="evenodd" clip-rule="evenodd" d="M35.5955 28.5063C39.5864 30.7746 44.753 29.4438 47.0733 25.5122L54.8695 12.326C57.1898 8.4246 55.8284 3.37393 51.8067 1.10566C47.8158 -1.1626 42.6492 0.168112 40.3289 4.09977L32.5327 17.2859C30.1196 21.2176 31.4809 26.2683 35.5955 28.5063Z" fill="white"/>
<path fill-rule="evenodd" clip-rule="evenodd" d="M31.264 46.8942C27.273 49.1624 22.1065 47.8317 19.7862 43.9L1.13102 12.3863C-1.18927 8.48482 0.171971 3.43415 4.19382 1.16589C5.46225 0.44004 6.94724 0.046875 8.40129 0.046875H25.1384C26.4996 0.0771186 27.8918 0.44004 29.1602 1.16589C33.1511 3.43415 34.5433 8.48482 32.223 12.3863C30.6761 15.0175 27.8299 16.4692 24.9218 16.4692C24.2412 16.4692 23.5296 16.3784 22.849 16.2272L34.2958 35.6436C36.647 39.5752 35.2549 44.6259 31.264 46.8942Z" fill="white"/>
</g>
<defs>
<clipPath id="clip0_185_6294">
<rect width="56" height="48" fill="white"/>
</clipPath>
</defs>
</svg>
