<svg width="33" height="28" viewBox="0 0 33 28" fill="none" xmlns="http://www.w3.org/2000/svg">
<path d="M23.3333 26V23.3333C23.3333 21.9188 22.7714 20.5623 21.7712 19.5621C20.771 18.5619 19.4145 18 18 18H7.33333C5.91885 18 4.56229 18.5619 3.5621 19.5621C2.5619 20.5623 2 21.9188 2 23.3333V26M31.3333 26V23.3333C31.3325 22.1516 30.9391 21.0037 30.2152 20.0698C29.4912 19.1358 28.4775 18.4688 27.3333 18.1733M22 2.17333C23.1472 2.46707 24.1641 3.13427 24.8902 4.06975C25.6163 5.00523 26.0105 6.15577 26.0105 7.34C26.0105 8.52423 25.6163 9.67477 24.8902 10.6103C24.1641 11.5457 23.1472 12.2129 22 12.5067M18 7.33333C18 10.2789 15.6122 12.6667 12.6667 12.6667C9.72115 12.6667 7.33333 10.2789 7.33333 7.33333C7.33333 4.38781 9.72115 2 12.6667 2C15.6122 2 18 4.38781 18 7.33333Z" stroke="#EC221F" stroke-width="3" stroke-linecap="round" stroke-linejoin="round"/>
</svg>
