<svg width="33" height="28" viewBox="0 0 33 28" fill="none" xmlns="http://www.w3.org/2000/svg">
<path d="M21.667 26V23.3333C21.667 21.9188 21.1051 20.5623 20.1049 19.5621C19.1047 18.5619 17.7481 18 16.3337 18H7.00033C5.58584 18 4.22928 18.5619 3.22909 19.5621C2.2289 20.5623 1.66699 21.9188 1.66699 23.3333V26M27.0003 8.66667V16.6667M31.0003 12.6667H23.0003M17.0003 7.33333C17.0003 10.2789 14.6125 12.6667 11.667 12.6667C8.72147 12.6667 6.33366 10.2789 6.33366 7.33333C6.33366 4.38781 8.72147 2 11.667 2C14.6125 2 17.0003 4.38781 17.0003 7.33333Z" stroke="#EC221F" stroke-width="3" stroke-linecap="round" stroke-linejoin="round"/>
</svg>
